solid TestPrints
facet normal 0.0 0.0 -1.0
   outer loop
      vertex 20.0 20.0 0.0
      vertex 0.0 5.63993296509579e-015 0.0
      vertex 0.0 20.0 0.0
   endloop
endfacet
facet normal 0.0 0.0 -1.0
   outer loop
      vertex 0.0 5.63993296509579e-015 0.0
      vertex 20.0 20.0 0.0
      vertex 20.0 5.63993296509579e-015 0.0
   endloop
endfacet
facet normal 0.0 0.0 1.0
   outer loop
      vertex 20.0 5.63993296509579e-015 20.0
      vertex 0.0 20.0 20.0
      vertex 0.0 5.63993296509579e-015 20.0
   endloop
endfacet
facet normal 0.0 0.0 1.0
   outer loop
      vertex 0.0 20.0 20.0
      vertex 20.0 5.63993296509579e-015 20.0
      vertex 20.0 20.0 20.0
   endloop
endfacet
facet normal -1.0 0.0 0.0
   outer loop
      vertex 0.0 20.0 20.0
      vertex 0.0 5.63993296509579e-015 0.0
      vertex 0.0 5.63993296509579e-015 20.0
   endloop
endfacet
facet normal -1.0 0.0 0.0
   outer loop
      vertex 0.0 5.63993296509579e-015 0.0
      vertex 0.0 20.0 20.0
      vertex 0.0 20.0 0.0
   endloop
endfacet
facet normal 0.0 1.0 0.0
   outer loop
      vertex 0.0 20.0 20.0
      vertex 20.0 20.0 0.0
      vertex 0.0 20.0 0.0
   endloop
endfacet
facet normal 0.0 1.0 0.0
   outer loop
      vertex 20.0 20.0 0.0
      vertex 0.0 20.0 20.0
      vertex 20.0 20.0 20.0
   endloop
endfacet
facet normal 1.0 0.0 0.0
   outer loop
      vertex 20.0 20.0 0.0
      vertex 20.0 5.63993296509579e-015 20.0
      vertex 20.0 5.63993296509579e-015 0.0
   endloop
endfacet
facet normal 1.0 0.0 0.0
   outer loop
      vertex 20.0 5.63993296509579e-015 20.0
      vertex 20.0 20.0 0.0
      vertex 20.0 20.0 20.0
   endloop
endfacet
facet normal -0.0 -1.0 -0.0
   outer loop
      vertex 20.0 5.63993296509579e-015 20.0
      vertex 0.0 5.63993296509579e-015 0.0
      vertex 20.0 5.63993296509579e-015 0.0
   endloop
endfacet
facet normal -0.0 -1.0 -0.0
   outer loop
      vertex 0.0 5.63993296509579e-015 0.0
      vertex 20.0 5.63993296509579e-015 20.0
      vertex 0.0 5.63993296509579e-015 20.0
   endloop
endfacet
facet normal 0.0 0.0 -1.0
   outer loop
      vertex 40.1519224698779 11.7364817766693 0.0
      vertex 40.1519224698779 8.2635182233307 0.0
      vertex 40.0 10.0 0.0
   endloop
endfacet
facet normal 0.0 0.0 -1.0
   outer loop
      vertex 40.1519224698779 8.2635182233307 0.0
      vertex 40.1519224698779 11.7364817766693 0.0
      vertex 40.6030737921409 13.4202014332567 0.0
   endloop
endfacet
facet normal 0.0 0.0 -1.0
   outer loop
      vertex 40.1519224698779 8.2635182233307 0.0
      vertex 40.6030737921409 13.4202014332567 0.0
      vertex 40.6030737921409 6.57979856674332 0.0
   endloop
endfacet
facet normal 0.0 0.0 -1.0
   outer loop
      vertex 40.6030737921409 6.57979856674332 0.0
      vertex 40.6030737921409 13.4202014332567 0.0
      vertex 41.3397459621556 15.0 0.0
   endloop
endfacet
facet normal 0.0 0.0 -1.0
   outer loop
      vertex 40.6030737921409 6.57979856674332 0.0
      vertex 41.3397459621556 15.0 0.0
      vertex 41.3397459621556 5.00000000000001 0.0
   endloop
endfacet
facet normal 0.0 0.0 -1.0
   outer loop
      vertex 41.3397459621556 5.00000000000001 0.0
      vertex 41.3397459621556 15.0 0.0
      vertex 42.3395555688102 16.4278760968654 0.0
   endloop
endfacet
facet normal 0.0 0.0 -1.0
   outer loop
      vertex 41.3397459621556 5.00000000000001 0.0
      vertex 42.3395555688102 16.4278760968654 0.0
      vertex 42.3395555688102 3.57212390313461 0.0
   endloop
endfacet
facet normal 0.0 0.0 -1.0
   outer loop
      vertex 42.3395555688102 3.57212390313461 0.0
      vertex 42.3395555688102 16.4278760968654 0.0
      vertex 43.5721239031346 17.6604444311898 0.0
   endloop
endfacet
facet normal 0.0 0.0 -1.0
   outer loop
      vertex 42.3395555688102 3.57212390313461 0.0
      vertex 43.5721239031346 17.6604444311898 0.0
      vertex 43.5721239031346 2.33955556881022 0.0
   endloop
endfacet
facet normal 0.0 0.0 -1.0
   outer loop
      vertex 43.5721239031346 2.33955556881022 0.0
      vertex 43.5721239031346 17.6604444311898 0.0
      vertex 45.0 18.6602540378444 0.0
   endloop
endfacet
facet normal 0.0 0.0 -1.0
   outer loop
      vertex 43.5721239031346 2.33955556881022 0.0
      vertex 45.0 18.6602540378444 0.0
      vertex 45.0 1.33974596215562 0.0
   endloop
endfacet
facet normal 0.0 0.0 -1.0
   outer loop
      vertex 45.0 1.33974596215562 0.0
      vertex 45.0 18.6602540378444 0.0
      vertex 46.5797985667433 0.603073792140918 0.0
   endloop
endfacet
facet normal 0.0 0.0 -1.0
   outer loop
      vertex 46.5797985667433 0.603073792140918 0.0
      vertex 45.0 18.6602540378444 0.0
      vertex 46.5797985667433 19.3969262078591 0.0
   endloop
endfacet
facet normal 0.0 0.0 -1.0
   outer loop
      vertex 46.5797985667433 0.603073792140918 0.0
      vertex 46.5797985667433 19.3969262078591 0.0
      vertex 48.2635182233307 19.8480775301221 0.0
   endloop
endfacet
facet normal 0.0 0.0 -1.0
   outer loop
      vertex 46.5797985667433 0.603073792140918 0.0
      vertex 48.2635182233307 19.8480775301221 0.0
      vertex 48.2635182233307 0.15192246987792 0.0
   endloop
endfacet
facet normal 0.0 0.0 -1.0
   outer loop
      vertex 48.2635182233307 0.15192246987792 0.0
      vertex 48.2635182233307 19.8480775301221 0.0
      vertex 50.0 20.0 0.0
   endloop
endfacet
facet normal 0.0 0.0 -1.0
   outer loop
      vertex 48.2635182233307 0.15192246987792 0.0
      vertex 50.0 20.0 0.0
      vertex 50.0 0.0 0.0
   endloop
endfacet
facet normal 0.0 0.0 -1.0
   outer loop
      vertex 50.0 0.0 0.0
      vertex 50.0 20.0 0.0
      vertex 51.7364817766693 19.8480775301221 0.0
   endloop
endfacet
facet normal 0.0 0.0 -1.0
   outer loop
      vertex 50.0 0.0 0.0
      vertex 51.7364817766693 19.8480775301221 0.0
      vertex 51.7364817766693 0.151922469877918 0.0
   endloop
endfacet
facet normal 0.0 0.0 -1.0
   outer loop
      vertex 51.7364817766693 0.151922469877918 0.0
      vertex 51.7364817766693 19.8480775301221 0.0
      vertex 53.4202014332567 19.3969262078591 0.0
   endloop
endfacet
facet normal 0.0 0.0 -1.0
   outer loop
      vertex 51.7364817766693 0.151922469877918 0.0
      vertex 53.4202014332567 19.3969262078591 0.0
      vertex 53.4202014332567 0.603073792140915 0.0
   endloop
endfacet
facet normal 0.0 0.0 -1.0
   outer loop
      vertex 53.4202014332567 0.603073792140915 0.0
      vertex 53.4202014332567 19.3969262078591 0.0
      vertex 55.0 18.6602540378444 0.0
   endloop
endfacet
facet normal 0.0 0.0 -1.0
   outer loop
      vertex 53.4202014332567 0.603073792140915 0.0
      vertex 55.0 18.6602540378444 0.0
      vertex 55.0 1.33974596215561 0.0
   endloop
endfacet
facet normal 0.0 0.0 -1.0
   outer loop
      vertex 55.0 1.33974596215561 0.0
      vertex 55.0 18.6602540378444 0.0
      vertex 56.4278760968654 17.6604444311898 0.0
   endloop
endfacet
facet normal 0.0 0.0 -1.0
   outer loop
      vertex 55.0 1.33974596215561 0.0
      vertex 56.4278760968654 17.6604444311898 0.0
      vertex 56.4278760968654 2.33955556881022 0.0
   endloop
endfacet
facet normal 0.0 0.0 -1.0
   outer loop
      vertex 56.4278760968654 2.33955556881022 0.0
      vertex 56.4278760968654 17.6604444311898 0.0
      vertex 57.6604444311898 16.4278760968654 0.0
   endloop
endfacet
facet normal 0.0 0.0 -1.0
   outer loop
      vertex 56.4278760968654 2.33955556881022 0.0
      vertex 57.6604444311898 16.4278760968654 0.0
      vertex 57.6604444311898 3.57212390313461 0.0
   endloop
endfacet
facet normal 0.0 0.0 -1.0
   outer loop
      vertex 57.6604444311898 3.57212390313461 0.0
      vertex 57.6604444311898 16.4278760968654 0.0
      vertex 58.6602540378444 15.0 0.0
   endloop
endfacet
facet normal 0.0 0.0 -1.0
   outer loop
      vertex 57.6604444311898 3.57212390313461 0.0
      vertex 58.6602540378444 15.0 0.0
      vertex 58.6602540378444 5.0 0.0
   endloop
endfacet
facet normal 0.0 0.0 -1.0
   outer loop
      vertex 58.6602540378444 5.0 0.0
      vertex 58.6602540378444 15.0 0.0
      vertex 59.3969262078591 13.4202014332567 0.0
   endloop
endfacet
facet normal 0.0 0.0 -1.0
   outer loop
      vertex 58.6602540378444 5.0 0.0
      vertex 59.3969262078591 13.4202014332567 0.0
      vertex 59.3969262078591 6.57979856674331 0.0
   endloop
endfacet
facet normal 0.0 0.0 -1.0
   outer loop
      vertex 59.3969262078591 6.57979856674331 0.0
      vertex 59.3969262078591 13.4202014332567 0.0
      vertex 59.8480775301221 11.7364817766693 0.0
   endloop
endfacet
facet normal 0.0 0.0 -1.0
   outer loop
      vertex 59.3969262078591 6.57979856674331 0.0
      vertex 59.8480775301221 11.7364817766693 0.0
      vertex 59.8480775301221 8.2635182233307 0.0
   endloop
endfacet
facet normal 0.0 0.0 -1.0
   outer loop
      vertex 59.8480775301221 8.2635182233307 0.0
      vertex 59.8480775301221 11.7364817766693 0.0
      vertex 60.0 10.0 0.0
   endloop
endfacet
facet normal 1.69208152591168e-047 3.09252648549194e-031 1.0
   outer loop
      vertex 40.1519224698779 8.2635182233307 20.0
      vertex 40.1519224698779 11.7364817766693 20.0
      vertex 40.0 10.0 20.0
   endloop
endfacet
facet normal 1.69208152591168e-047 3.09252648549194e-031 1.0
   outer loop
      vertex 40.1519224698779 11.7364817766693 20.0
      vertex 40.1519224698779 8.2635182233307 20.0
      vertex 40.6030737921409 6.57979856674332 20.0
   endloop
endfacet
facet normal 1.69208152591168e-047 3.09252648549194e-031 1.0
   outer loop
      vertex 40.1519224698779 11.7364817766693 20.0
      vertex 40.6030737921409 6.57979856674332 20.0
      vertex 40.6030737921409 13.4202014332567 20.0
   endloop
endfacet
facet normal 1.69208152591168e-047 3.09252648549194e-031 1.0
   outer loop
      vertex 40.6030737921409 13.4202014332567 20.0
      vertex 40.6030737921409 6.57979856674332 20.0
      vertex 41.3397459621556 5.00000000000001 20.0
   endloop
endfacet
facet normal 1.69208152591168e-047 3.09252648549194e-031 1.0
   outer loop
      vertex 40.6030737921409 13.4202014332567 20.0
      vertex 41.3397459621556 5.00000000000001 20.0
      vertex 41.3397459621556 15.0 20.0
   endloop
endfacet
facet normal 1.69208152591168e-047 3.09252648549194e-031 1.0
   outer loop
      vertex 41.3397459621556 15.0 20.0
      vertex 41.3397459621556 5.00000000000001 20.0
      vertex 42.3395555688102 3.57212390313461 20.0
   endloop
endfacet
facet normal 1.69208152591168e-047 3.09252648549194e-031 1.0
   outer loop
      vertex 41.3397459621556 15.0 20.0
      vertex 42.3395555688102 3.57212390313461 20.0
      vertex 42.0076396750867 10.0 20.0
   endloop
endfacet
facet normal 1.69208152591168e-047 3.09252648549194e-031 1.0
   outer loop
      vertex 42.0076396750867 10.0 20.0
      vertex 42.3395555688102 3.57212390313461 20.0
      vertex 42.1290615871582 8.61214119432135 20.0
   endloop
endfacet
facet normal 1.69208152591168e-047 3.09252648549194e-031 1.0
   outer loop
      vertex 42.1290615871582 8.61214119432135 20.0
      vertex 42.3395555688102 3.57212390313461 20.0
      vertex 42.4896379800169 7.26645177616273 20.0
   endloop
endfacet
facet normal 1.69208152591168e-047 3.09252648549194e-031 1.0
   outer loop
      vertex 42.4896379800169 7.26645177616273 20.0
      vertex 42.3395555688102 3.57212390313461 20.0
      vertex 43.5721239031346 2.33955556881022 20.0
   endloop
endfacet
facet normal 1.69208152591168e-047 3.09252648549194e-031 1.0
   outer loop
      vertex 42.4896379800169 7.26645177616273 20.0
      vertex 43.5721239031346 2.33955556881022 20.0
      vertex 43.0784129224263 6.00381983754333 20.0
   endloop
endfacet
facet normal 1.69208152591168e-047 3.09252648549194e-031 1.0
   outer loop
      vertex 43.0784129224263 6.00381983754333 20.0
      vertex 43.5721239031346 2.33955556881022 20.0
      vertex 43.8774967856955 4.86260981099551 20.0
   endloop
endfacet
facet normal 1.69208152591168e-047 3.09252648549194e-031 1.0
   outer loop
      vertex 43.8774967856955 4.86260981099551 20.0
      vertex 43.5721239031346 2.33955556881022 20.0
      vertex 45.0 1.33974596215562 20.0
   endloop
endfacet
facet normal 1.69208152591168e-047 3.09252648549194e-031 1.0
   outer loop
      vertex 43.8774967856955 4.86260981099551 20.0
      vertex 45.0 1.33974596215562 20.0
      vertex 44.8626098109955 3.87749678569553 20.0
   endloop
endfacet
facet normal 1.69208152591168e-047 3.09252648549194e-031 1.0
   outer loop
      vertex 44.8626098109955 3.87749678569553 20.0
      vertex 45.0 1.33974596215562 20.0
      vertex 46.0038198375434 3.07841292242623 20.0
   endloop
endfacet
facet normal 1.69208152591168e-047 3.09252648549194e-031 1.0
   outer loop
      vertex 46.0038198375434 3.07841292242623 20.0
      vertex 45.0 1.33974596215562 20.0
      vertex 46.5797985667433 0.603073792140918 20.0
   endloop
endfacet
facet normal 1.69208152591168e-047 3.09252648549194e-031 1.0
   outer loop
      vertex 46.0038198375434 3.07841292242623 20.0
      vertex 46.5797985667433 0.603073792140918 20.0
      vertex 47.2664517761628 2.48963798001691 20.0
   endloop
endfacet
facet normal 1.69208152591168e-047 3.09252648549194e-031 1.0
   outer loop
      vertex 47.2664517761628 2.48963798001691 20.0
      vertex 46.5797985667433 0.603073792140918 20.0
      vertex 48.2635182233307 0.15192246987792 20.0
   endloop
endfacet
facet normal 1.69208152591168e-047 3.09252648549194e-031 1.0
   outer loop
      vertex 47.2664517761628 2.48963798001691 20.0
      vertex 48.2635182233307 0.15192246987792 20.0
      vertex 48.6121411943213 2.12906158715821 20.0
   endloop
endfacet
facet normal 1.69208152591168e-047 3.09252648549194e-031 1.0
   outer loop
      vertex 48.6121411943213 2.12906158715821 20.0
      vertex 48.2635182233307 0.15192246987792 20.0
      vertex 50.0 0.0 20.0
   endloop
endfacet
facet normal 1.69208152591168e-047 3.09252648549194e-031 1.0
   outer loop
      vertex 48.6121411943213 2.12906158715821 20.0
      vertex 50.0 0.0 20.0
      vertex 50.0 2.0076396750867 20.0
   endloop
endfacet
facet normal 1.69208152591168e-047 3.09252648549194e-031 1.0
   outer loop
      vertex 50.0 2.0076396750867 20.0
      vertex 50.0 0.0 20.0
      vertex 51.7364817766693 0.151922469877918 20.0
   endloop
endfacet
facet normal 1.69208152591168e-047 3.09252648549194e-031 1.0
   outer loop
      vertex 50.0 2.0076396750867 20.0
      vertex 51.7364817766693 0.151922469877918 20.0
      vertex 51.3878588056787 2.12906158715821 20.0
   endloop
endfacet
facet normal 1.69208152591168e-047 3.09252648549194e-031 1.0
   outer loop
      vertex 51.3878588056787 2.12906158715821 20.0
      vertex 51.7364817766693 0.151922469877918 20.0
      vertex 52.7335482238373 2.48963798001691 20.0
   endloop
endfacet
facet normal 1.69208152591168e-047 3.09252648549194e-031 1.0
   outer loop
      vertex 52.7335482238373 2.48963798001691 20.0
      vertex 51.7364817766693 0.151922469877918 20.0
      vertex 53.4202014332567 0.603073792140915 20.0
   endloop
endfacet
facet normal 1.69208152591168e-047 3.09252648549194e-031 1.0
   outer loop
      vertex 52.7335482238373 2.48963798001691 20.0
      vertex 53.4202014332567 0.603073792140915 20.0
      vertex 53.9961801624567 3.07841292242623 20.0
   endloop
endfacet
facet normal 1.69208152591168e-047 3.09252648549194e-031 1.0
   outer loop
      vertex 53.9961801624567 3.07841292242623 20.0
      vertex 53.4202014332567 0.603073792140915 20.0
      vertex 55.0 1.33974596215561 20.0
   endloop
endfacet
facet normal 1.69208152591168e-047 3.09252648549194e-031 1.0
   outer loop
      vertex 53.9961801624567 3.07841292242623 20.0
      vertex 55.0 1.33974596215561 20.0
      vertex 55.1373901890046 3.87749678569558 20.0
   endloop
endfacet
facet normal 1.69208152591168e-047 3.09252648549194e-031 1.0
   outer loop
      vertex 55.1373901890046 3.87749678569558 20.0
      vertex 55.0 1.33974596215561 20.0
      vertex 56.4278760968654 2.33955556881022 20.0
   endloop
endfacet
facet normal 1.69208152591168e-047 3.09252648549194e-031 1.0
   outer loop
      vertex 55.1373901890046 3.87749678569558 20.0
      vertex 56.4278760968654 2.33955556881022 20.0
      vertex 56.1225032143045 4.86260981099545 20.0
   endloop
endfacet
facet normal 1.69208152591168e-047 3.09252648549194e-031 1.0
   outer loop
      vertex 56.1225032143045 4.86260981099545 20.0
      vertex 56.4278760968654 2.33955556881022 20.0
      vertex 56.9215870775737 6.00381983754327 20.0
   endloop
endfacet
facet normal 1.69208152591168e-047 3.09252648549194e-031 1.0
   outer loop
      vertex 56.9215870775737 6.00381983754327 20.0
      vertex 56.4278760968654 2.33955556881022 20.0
      vertex 57.6604444311898 3.57212390313461 20.0
   endloop
endfacet
facet normal 1.69208152591168e-047 3.09252648549194e-031 1.0
   outer loop
      vertex 56.9215870775737 6.00381983754327 20.0
      vertex 57.6604444311898 3.57212390313461 20.0
      vertex 57.510362019983 7.26645177616276 20.0
   endloop
endfacet
facet normal 1.69208152591168e-047 3.09252648549194e-031 1.0
   outer loop
      vertex 57.510362019983 7.26645177616276 20.0
      vertex 57.6604444311898 3.57212390313461 20.0
      vertex 57.8709384128418 8.61214119432139 20.0
   endloop
endfacet
facet normal 1.69208152591168e-047 3.09252648549194e-031 1.0
   outer loop
      vertex 57.8709384128418 8.61214119432139 20.0
      vertex 57.6604444311898 3.57212390313461 20.0
      vertex 58.6602540378444 5.0 20.0
   endloop
endfacet
facet normal 1.69208152591168e-047 3.09252648549194e-031 1.0
   outer loop
      vertex 57.8709384128418 8.61214119432139 20.0
      vertex 58.6602540378444 5.0 20.0
      vertex 57.9923603249133 10.0 20.0
   endloop
endfacet
facet normal 1.69208152591168e-047 3.09252648549194e-031 1.0
   outer loop
      vertex 42.0076396750867 10.0 20.0
      vertex 42.3395555688102 16.4278760968654 20.0
      vertex 41.3397459621556 15.0 20.0
   endloop
endfacet
facet normal 1.69208152591168e-047 3.09252648549194e-031 1.0
   outer loop
      vertex 42.3395555688102 16.4278760968654 20.0
      vertex 42.0076396750867 10.0 20.0
      vertex 42.1290615871582 11.3878588056787 20.0
   endloop
endfacet
facet normal 1.69208152591168e-047 3.09252648549194e-031 1.0
   outer loop
      vertex 42.3395555688102 16.4278760968654 20.0
      vertex 42.1290615871582 11.3878588056787 20.0
      vertex 42.4896379800169 12.7335482238373 20.0
   endloop
endfacet
facet normal 1.69208152591168e-047 3.09252648549194e-031 1.0
   outer loop
      vertex 42.3395555688102 16.4278760968654 20.0
      vertex 42.4896379800169 12.7335482238373 20.0
      vertex 43.5721239031346 17.6604444311898 20.0
   endloop
endfacet
facet normal 1.69208152591168e-047 3.09252648549194e-031 1.0
   outer loop
      vertex 43.5721239031346 17.6604444311898 20.0
      vertex 42.4896379800169 12.7335482238373 20.0
      vertex 43.0784129224263 13.9961801624567 20.0
   endloop
endfacet
facet normal 1.69208152591168e-047 3.09252648549194e-031 1.0
   outer loop
      vertex 43.5721239031346 17.6604444311898 20.0
      vertex 43.0784129224263 13.9961801624567 20.0
      vertex 43.8774967856955 15.1373901890045 20.0
   endloop
endfacet
facet normal 1.69208152591168e-047 3.09252648549194e-031 1.0
   outer loop
      vertex 43.5721239031346 17.6604444311898 20.0
      vertex 43.8774967856955 15.1373901890045 20.0
      vertex 45.0 18.6602540378444 20.0
   endloop
endfacet
facet normal 1.69208152591168e-047 3.09252648549194e-031 1.0
   outer loop
      vertex 45.0 18.6602540378444 20.0
      vertex 43.8774967856955 15.1373901890045 20.0
      vertex 44.8626098109955 16.1225032143045 20.0
   endloop
endfacet
facet normal 1.69208152591168e-047 3.09252648549194e-031 1.0
   outer loop
      vertex 45.0 18.6602540378444 20.0
      vertex 44.8626098109955 16.1225032143045 20.0
      vertex 46.0038198375434 16.9215870775738 20.0
   endloop
endfacet
facet normal 1.69208152591168e-047 3.09252648549194e-031 1.0
   outer loop
      vertex 45.0 18.6602540378444 20.0
      vertex 46.0038198375434 16.9215870775738 20.0
      vertex 46.5797985667433 19.3969262078591 20.0
   endloop
endfacet
facet normal 1.69208152591168e-047 3.09252648549194e-031 1.0
   outer loop
      vertex 46.5797985667433 19.3969262078591 20.0
      vertex 46.0038198375434 16.9215870775738 20.0
      vertex 47.2664517761627 17.5103620199831 20.0
   endloop
endfacet
facet normal 1.69208152591168e-047 3.09252648549194e-031 1.0
   outer loop
      vertex 46.5797985667433 19.3969262078591 20.0
      vertex 47.2664517761627 17.5103620199831 20.0
      vertex 48.2635182233307 19.8480775301221 20.0
   endloop
endfacet
facet normal 1.69208152591168e-047 3.09252648549194e-031 1.0
   outer loop
      vertex 48.2635182233307 19.8480775301221 20.0
      vertex 47.2664517761627 17.5103620199831 20.0
      vertex 48.6121411943213 17.8709384128418 20.0
   endloop
endfacet
facet normal 1.69208152591168e-047 3.09252648549194e-031 1.0
   outer loop
      vertex 48.2635182233307 19.8480775301221 20.0
      vertex 48.6121411943213 17.8709384128418 20.0
      vertex 50.0 20.0 20.0
   endloop
endfacet
facet normal 1.69208152591168e-047 3.09252648549194e-031 1.0
   outer loop
      vertex 50.0 20.0 20.0
      vertex 48.6121411943213 17.8709384128418 20.0
      vertex 50.0 17.9923603249133 20.0
   endloop
endfacet
facet normal 1.69208152591168e-047 3.09252648549194e-031 1.0
   outer loop
      vertex 50.0 20.0 20.0
      vertex 50.0 17.9923603249133 20.0
      vertex 51.3878588056787 17.8709384128418 20.0
   endloop
endfacet
facet normal 1.69208152591168e-047 3.09252648549194e-031 1.0
   outer loop
      vertex 50.0 20.0 20.0
      vertex 51.3878588056787 17.8709384128418 20.0
      vertex 51.7364817766693 19.8480775301221 20.0
   endloop
endfacet
facet normal 1.69208152591168e-047 3.09252648549194e-031 1.0
   outer loop
      vertex 51.7364817766693 19.8480775301221 20.0
      vertex 51.3878588056787 17.8709384128418 20.0
      vertex 52.7335482238373 17.5103620199831 20.0
   endloop
endfacet
facet normal 1.69208152591168e-047 3.09252648549194e-031 1.0
   outer loop
      vertex 51.7364817766693 19.8480775301221 20.0
      vertex 52.7335482238373 17.5103620199831 20.0
      vertex 53.4202014332567 19.3969262078591 20.0
   endloop
endfacet
facet normal 1.69208152591168e-047 3.09252648549194e-031 1.0
   outer loop
      vertex 53.4202014332567 19.3969262078591 20.0
      vertex 52.7335482238373 17.5103620199831 20.0
      vertex 53.9961801624567 16.9215870775738 20.0
   endloop
endfacet
facet normal 1.69208152591168e-047 3.09252648549194e-031 1.0
   outer loop
      vertex 53.4202014332567 19.3969262078591 20.0
      vertex 53.9961801624567 16.9215870775738 20.0
      vertex 55.0 18.6602540378444 20.0
   endloop
endfacet
facet normal 1.69208152591168e-047 3.09252648549194e-031 1.0
   outer loop
      vertex 55.0 18.6602540378444 20.0
      vertex 53.9961801624567 16.9215870775738 20.0
      vertex 55.1373901890045 16.1225032143045 20.0
   endloop
endfacet
facet normal 1.69208152591168e-047 3.09252648549194e-031 1.0
   outer loop
      vertex 55.0 18.6602540378444 20.0
      vertex 55.1373901890045 16.1225032143045 20.0
      vertex 56.4278760968654 17.6604444311898 20.0
   endloop
endfacet
facet normal 1.69208152591168e-047 3.09252648549194e-031 1.0
   outer loop
      vertex 56.4278760968654 17.6604444311898 20.0
      vertex 55.1373901890045 16.1225032143045 20.0
      vertex 56.1225032143045 15.1373901890045 20.0
   endloop
endfacet
facet normal 1.69208152591168e-047 3.09252648549194e-031 1.0
   outer loop
      vertex 56.4278760968654 17.6604444311898 20.0
      vertex 56.1225032143045 15.1373901890045 20.0
      vertex 56.9215870775738 13.9961801624567 20.0
   endloop
endfacet
facet normal 1.69208152591168e-047 3.09252648549194e-031 1.0
   outer loop
      vertex 56.4278760968654 17.6604444311898 20.0
      vertex 56.9215870775738 13.9961801624567 20.0
      vertex 57.6604444311898 16.4278760968654 20.0
   endloop
endfacet
facet normal 1.69208152591168e-047 3.09252648549194e-031 1.0
   outer loop
      vertex 57.6604444311898 16.4278760968654 20.0
      vertex 56.9215870775738 13.9961801624567 20.0
      vertex 57.510362019983 12.7335482238373 20.0
   endloop
endfacet
facet normal 1.69208152591168e-047 3.09252648549194e-031 1.0
   outer loop
      vertex 57.6604444311898 16.4278760968654 20.0
      vertex 57.510362019983 12.7335482238373 20.0
      vertex 57.8709384128418 11.3878588056787 20.0
   endloop
endfacet
facet normal 1.69208152591168e-047 3.09252648549194e-031 1.0
   outer loop
      vertex 57.6604444311898 16.4278760968654 20.0
      vertex 57.8709384128418 11.3878588056787 20.0
      vertex 58.6602540378444 15.0 20.0
   endloop
endfacet
facet normal 1.69208152591168e-047 3.09252648549194e-031 1.0
   outer loop
      vertex 58.6602540378444 15.0 20.0
      vertex 57.8709384128418 11.3878588056787 20.0
      vertex 57.9923603249133 10.0 20.0
   endloop
endfacet
facet normal 1.69208152591168e-047 3.09252648549194e-031 1.0
   outer loop
      vertex 58.6602540378444 15.0 20.0
      vertex 57.9923603249133 10.0 20.0
      vertex 58.6602540378444 5.0 20.0
   endloop
endfacet
facet normal 1.69208152591168e-047 3.09252648549194e-031 1.0
   outer loop
      vertex 58.6602540378444 15.0 20.0
      vertex 58.6602540378444 5.0 20.0
      vertex 59.3969262078591 6.57979856674331 20.0
   endloop
endfacet
facet normal 1.69208152591168e-047 3.09252648549194e-031 1.0
   outer loop
      vertex 58.6602540378444 15.0 20.0
      vertex 59.3969262078591 6.57979856674331 20.0
      vertex 59.3969262078591 13.4202014332567 20.0
   endloop
endfacet
facet normal 1.69208152591168e-047 3.09252648549194e-031 1.0
   outer loop
      vertex 59.3969262078591 13.4202014332567 20.0
      vertex 59.3969262078591 6.57979856674331 20.0
      vertex 59.8480775301221 8.2635182233307 20.0
   endloop
endfacet
facet normal 1.69208152591168e-047 3.09252648549194e-031 1.0
   outer loop
      vertex 59.3969262078591 13.4202014332567 20.0
      vertex 59.8480775301221 8.2635182233307 20.0
      vertex 59.8480775301221 11.7364817766693 20.0
   endloop
endfacet
facet normal 1.69208152591168e-047 3.09252648549194e-031 1.0
   outer loop
      vertex 59.8480775301221 11.7364817766693 20.0
      vertex 59.8480775301221 8.2635182233307 20.0
      vertex 60.0 10.0 20.0
   endloop
endfacet
facet normal 0.996194698091747 0.0871557427476457 0.0
   outer loop
      vertex 59.8480775301221 11.7364817766693 0.0
      vertex 60.0 10.0 20.0
      vertex 60.0 10.0 0.0
   endloop
endfacet
facet normal 0.996194698091747 0.0871557427476457 0.0
   outer loop
      vertex 60.0 10.0 20.0
      vertex 59.8480775301221 11.7364817766693 0.0
      vertex 59.8480775301221 11.7364817766693 20.0
   endloop
endfacet
facet normal 0.996194698091747 -0.0871557427476454 0.0
   outer loop
      vertex 60.0 10.0 0.0
      vertex 59.8480775301221 8.2635182233307 20.0
      vertex 59.8480775301221 8.2635182233307 0.0
   endloop
endfacet
facet normal 0.996194698091747 -0.0871557427476454 0.0
   outer loop
      vertex 59.8480775301221 8.2635182233307 20.0
      vertex 60.0 10.0 0.0
      vertex 60.0 10.0 20.0
   endloop
endfacet
facet normal 0.965925826289064 -0.258819045102538 0.0
   outer loop
      vertex 59.8480775301221 8.2635182233307 0.0
      vertex 59.3969262078591 6.57979856674331 20.0
      vertex 59.3969262078591 6.57979856674331 0.0
   endloop
endfacet
facet normal 0.965925826289064 -0.258819045102538 0.0
   outer loop
      vertex 59.3969262078591 6.57979856674331 20.0
      vertex 59.8480775301221 8.2635182233307 0.0
      vertex 59.8480775301221 8.2635182233307 20.0
   endloop
endfacet
facet normal 0.90630778703665 -0.422618261740699 0.0
   outer loop
      vertex 59.3969262078591 6.57979856674331 0.0
      vertex 58.6602540378444 5.0 20.0
      vertex 58.6602540378444 5.0 0.0
   endloop
endfacet
facet normal 0.90630778703665 -0.422618261740699 0.0
   outer loop
      vertex 58.6602540378444 5.0 20.0
      vertex 59.3969262078591 6.57979856674331 0.0
      vertex 59.3969262078591 6.57979856674331 20.0
   endloop
endfacet
facet normal 0.819152044289015 -0.573576436351013 0.0
   outer loop
      vertex 58.6602540378444 5.0 0.0
      vertex 57.6604444311898 3.57212390313461 20.0
      vertex 57.6604444311898 3.57212390313461 0.0
   endloop
endfacet
facet normal 0.819152044289015 -0.573576436351013 0.0
   outer loop
      vertex 57.6604444311898 3.57212390313461 20.0
      vertex 58.6602540378444 5.0 0.0
      vertex 58.6602540378444 5.0 20.0
   endloop
endfacet
facet normal 0.70710678118653 -0.707106781186565 0.0
   outer loop
      vertex 57.6604444311898 3.57212390313461 20.0
      vertex 56.4278760968654 2.33955556881022 0.0
      vertex 57.6604444311898 3.57212390313461 0.0
   endloop
endfacet
facet normal 0.70710678118653 -0.707106781186565 0.0
   outer loop
      vertex 56.4278760968654 2.33955556881022 0.0
      vertex 57.6604444311898 3.57212390313461 20.0
      vertex 56.4278760968654 2.33955556881022 20.0
   endloop
endfacet
facet normal 0.573576436351057 -0.819152044288984 0.0
   outer loop
      vertex 56.4278760968654 2.33955556881022 20.0
      vertex 55.0 1.33974596215561 0.0
      vertex 56.4278760968654 2.33955556881022 0.0
   endloop
endfacet
facet normal 0.573576436351057 -0.819152044288984 0.0
   outer loop
      vertex 55.0 1.33974596215561 0.0
      vertex 56.4278760968654 2.33955556881022 20.0
      vertex 55.0 1.33974596215561 20.0
   endloop
endfacet
facet normal 0.422618261740699 -0.90630778703665 0.0
   outer loop
      vertex 55.0 1.33974596215561 20.0
      vertex 53.4202014332567 0.603073792140915 0.0
      vertex 55.0 1.33974596215561 0.0
   endloop
endfacet
facet normal 0.422618261740699 -0.90630778703665 0.0
   outer loop
      vertex 53.4202014332567 0.603073792140915 0.0
      vertex 55.0 1.33974596215561 20.0
      vertex 53.4202014332567 0.603073792140915 20.0
   endloop
endfacet
facet normal 0.25881904510252 -0.965925826289068 0.0
   outer loop
      vertex 53.4202014332567 0.603073792140915 20.0
      vertex 51.7364817766693 0.151922469877918 0.0
      vertex 53.4202014332567 0.603073792140915 0.0
   endloop
endfacet
facet normal 0.25881904510252 -0.965925826289068 0.0
   outer loop
      vertex 51.7364817766693 0.151922469877918 0.0
      vertex 53.4202014332567 0.603073792140915 20.0
      vertex 51.7364817766693 0.151922469877918 20.0
   endloop
endfacet
facet normal 0.0871557427476574 -0.996194698091746 0.0
   outer loop
      vertex 51.7364817766693 0.151922469877918 20.0
      vertex 50.0 0.0 0.0
      vertex 51.7364817766693 0.151922469877918 0.0
   endloop
endfacet
facet normal 0.0871557427476574 -0.996194698091746 0.0
   outer loop
      vertex 50.0 0.0 0.0
      vertex 51.7364817766693 0.151922469877918 20.0
      vertex 50.0 0.0 20.0
   endloop
endfacet
facet normal -0.0871557427476582 -0.996194698091746 0.0
   outer loop
      vertex 50.0 0.0 20.0
      vertex 48.2635182233307 0.15192246987792 0.0
      vertex 50.0 0.0 0.0
   endloop
endfacet
facet normal -0.0871557427476582 -0.996194698091746 0.0
   outer loop
      vertex 48.2635182233307 0.15192246987792 0.0
      vertex 50.0 0.0 20.0
      vertex 48.2635182233307 0.15192246987792 20.0
   endloop
endfacet
facet normal -0.258819045102521 -0.965925826289068 0.0
   outer loop
      vertex 48.2635182233307 0.15192246987792 20.0
      vertex 46.5797985667433 0.603073792140918 0.0
      vertex 48.2635182233307 0.15192246987792 0.0
   endloop
endfacet
facet normal -0.258819045102521 -0.965925826289068 0.0
   outer loop
      vertex 46.5797985667433 0.603073792140918 0.0
      vertex 48.2635182233307 0.15192246987792 20.0
      vertex 46.5797985667433 0.603073792140918 20.0
   endloop
endfacet
facet normal -0.422618261740699 -0.90630778703665 0.0
   outer loop
      vertex 46.5797985667433 0.603073792140918 20.0
      vertex 45.0 1.33974596215562 0.0
      vertex 46.5797985667433 0.603073792140918 0.0
   endloop
endfacet
facet normal -0.422618261740699 -0.90630778703665 0.0
   outer loop
      vertex 45.0 1.33974596215562 0.0
      vertex 46.5797985667433 0.603073792140918 20.0
      vertex 45.0 1.33974596215562 20.0
   endloop
endfacet
facet normal -0.57357643635105 -0.819152044288989 0.0
   outer loop
      vertex 45.0 1.33974596215562 20.0
      vertex 43.5721239031346 2.33955556881022 0.0
      vertex 45.0 1.33974596215562 0.0
   endloop
endfacet
facet normal -0.57357643635105 -0.819152044288989 0.0
   outer loop
      vertex 43.5721239031346 2.33955556881022 0.0
      vertex 45.0 1.33974596215562 20.0
      vertex 43.5721239031346 2.33955556881022 20.0
   endloop
endfacet
facet normal -0.707106781186544 -0.707106781186551 0.0
   outer loop
      vertex 43.5721239031346 2.33955556881022 20.0
      vertex 42.3395555688102 3.57212390313461 0.0
      vertex 43.5721239031346 2.33955556881022 0.0
   endloop
endfacet
facet normal -0.707106781186544 -0.707106781186551 0.0
   outer loop
      vertex 42.3395555688102 3.57212390313461 0.0
      vertex 43.5721239031346 2.33955556881022 20.0
      vertex 42.3395555688102 3.57212390313461 20.0
   endloop
endfacet
facet normal -0.819152044288997 -0.573576436351039 0.0
   outer loop
      vertex 41.3397459621556 5.00000000000001 20.0
      vertex 42.3395555688102 3.57212390313461 0.0
      vertex 42.3395555688102 3.57212390313461 20.0
   endloop
endfacet
facet normal -0.819152044288997 -0.573576436351039 0.0
   outer loop
      vertex 42.3395555688102 3.57212390313461 0.0
      vertex 41.3397459621556 5.00000000000001 20.0
      vertex 41.3397459621556 5.00000000000001 0.0
   endloop
endfacet
facet normal -0.906307787036645 -0.42261826174071 0.0
   outer loop
      vertex 40.6030737921409 6.57979856674332 20.0
      vertex 41.3397459621556 5.00000000000001 0.0
      vertex 41.3397459621556 5.00000000000001 20.0
   endloop
endfacet
facet normal -0.906307787036645 -0.42261826174071 0.0
   outer loop
      vertex 41.3397459621556 5.00000000000001 0.0
      vertex 40.6030737921409 6.57979856674332 20.0
      vertex 40.6030737921409 6.57979856674332 0.0
   endloop
endfacet
facet normal -0.96592582628907 -0.258819045102515 0.0
   outer loop
      vertex 40.1519224698779 8.2635182233307 20.0
      vertex 40.6030737921409 6.57979856674332 0.0
      vertex 40.6030737921409 6.57979856674332 20.0
   endloop
endfacet
facet normal -0.96592582628907 -0.258819045102515 0.0
   outer loop
      vertex 40.6030737921409 6.57979856674332 0.0
      vertex 40.1519224698779 8.2635182233307 20.0
      vertex 40.1519224698779 8.2635182233307 0.0
   endloop
endfacet
facet normal -0.996194698091746 -0.0871557427476584 0.0
   outer loop
      vertex 40.0 10.0 20.0
      vertex 40.1519224698779 8.2635182233307 0.0
      vertex 40.1519224698779 8.2635182233307 20.0
   endloop
endfacet
facet normal -0.996194698091746 -0.0871557427476584 0.0
   outer loop
      vertex 40.1519224698779 8.2635182233307 0.0
      vertex 40.0 10.0 20.0
      vertex 40.0 10.0 0.0
   endloop
endfacet
facet normal -0.996194698091746 0.0871557427476582 0.0
   outer loop
      vertex 40.1519224698779 11.7364817766693 20.0
      vertex 40.0 10.0 0.0
      vertex 40.0 10.0 20.0
   endloop
endfacet
facet normal -0.996194698091746 0.0871557427476582 0.0
   outer loop
      vertex 40.0 10.0 0.0
      vertex 40.1519224698779 11.7364817766693 20.0
      vertex 40.1519224698779 11.7364817766693 0.0
   endloop
endfacet
facet normal -0.96592582628907 0.258819045102516 0.0
   outer loop
      vertex 40.6030737921409 13.4202014332567 20.0
      vertex 40.1519224698779 11.7364817766693 0.0
      vertex 40.1519224698779 11.7364817766693 20.0
   endloop
endfacet
facet normal -0.96592582628907 0.258819045102516 0.0
   outer loop
      vertex 40.1519224698779 11.7364817766693 0.0
      vertex 40.6030737921409 13.4202014332567 20.0
      vertex 40.6030737921409 13.4202014332567 0.0
   endloop
endfacet
facet normal -0.906307787036646 0.422618261740708 0.0
   outer loop
      vertex 41.3397459621556 15.0 20.0
      vertex 40.6030737921409 13.4202014332567 0.0
      vertex 40.6030737921409 13.4202014332567 20.0
   endloop
endfacet
facet normal -0.906307787036646 0.422618261740708 0.0
   outer loop
      vertex 40.6030737921409 13.4202014332567 0.0
      vertex 41.3397459621556 15.0 20.0
      vertex 41.3397459621556 15.0 0.0
   endloop
endfacet
facet normal -0.819152044288996 0.573576436351039 0.0
   outer loop
      vertex 42.3395555688102 16.4278760968654 20.0
      vertex 41.3397459621556 15.0 0.0
      vertex 41.3397459621556 15.0 20.0
   endloop
endfacet
facet normal -0.819152044288996 0.573576436351039 0.0
   outer loop
      vertex 41.3397459621556 15.0 0.0
      vertex 42.3395555688102 16.4278760968654 20.0
      vertex 42.3395555688102 16.4278760968654 0.0
   endloop
endfacet
facet normal -0.707106781186544 0.707106781186551 0.0
   outer loop
      vertex 42.3395555688102 16.4278760968654 20.0
      vertex 43.5721239031346 17.6604444311898 0.0
      vertex 42.3395555688102 16.4278760968654 0.0
   endloop
endfacet
facet normal -0.707106781186544 0.707106781186551 0.0
   outer loop
      vertex 43.5721239031346 17.6604444311898 0.0
      vertex 42.3395555688102 16.4278760968654 20.0
      vertex 43.5721239031346 17.6604444311898 20.0
   endloop
endfacet
facet normal -0.573576436351044 0.819152044288993 0.0
   outer loop
      vertex 43.5721239031346 17.6604444311898 20.0
      vertex 45.0 18.6602540378444 0.0
      vertex 43.5721239031346 17.6604444311898 0.0
   endloop
endfacet
facet normal -0.573576436351044 0.819152044288993 0.0
   outer loop
      vertex 45.0 18.6602540378444 0.0
      vertex 43.5721239031346 17.6604444311898 20.0
      vertex 45.0 18.6602540378444 20.0
   endloop
endfacet
facet normal -0.422618261740702 0.906307787036649 0.0
   outer loop
      vertex 45.0 18.6602540378444 20.0
      vertex 46.5797985667433 19.3969262078591 0.0
      vertex 45.0 18.6602540378444 0.0
   endloop
endfacet
facet normal -0.422618261740702 0.906307787036649 0.0
   outer loop
      vertex 46.5797985667433 19.3969262078591 0.0
      vertex 45.0 18.6602540378444 20.0
      vertex 46.5797985667433 19.3969262078591 20.0
   endloop
endfacet
facet normal -0.258819045102521 0.965925826289068 0.0
   outer loop
      vertex 46.5797985667433 19.3969262078591 20.0
      vertex 48.2635182233307 19.8480775301221 0.0
      vertex 46.5797985667433 19.3969262078591 0.0
   endloop
endfacet
facet normal -0.258819045102521 0.965925826289068 0.0
   outer loop
      vertex 48.2635182233307 19.8480775301221 0.0
      vertex 46.5797985667433 19.3969262078591 20.0
      vertex 48.2635182233307 19.8480775301221 20.0
   endloop
endfacet
facet normal -0.0871557427476582 0.996194698091746 0.0
   outer loop
      vertex 48.2635182233307 19.8480775301221 20.0
      vertex 50.0 20.0 0.0
      vertex 48.2635182233307 19.8480775301221 0.0
   endloop
endfacet
facet normal -0.0871557427476582 0.996194698091746 0.0
   outer loop
      vertex 50.0 20.0 0.0
      vertex 48.2635182233307 19.8480775301221 20.0
      vertex 50.0 20.0 20.0
   endloop
endfacet
facet normal 0.0871557427476582 0.996194698091746 0.0
   outer loop
      vertex 50.0 20.0 20.0
      vertex 51.7364817766693 19.8480775301221 0.0
      vertex 50.0 20.0 0.0
   endloop
endfacet
facet normal 0.0871557427476582 0.996194698091746 0.0
   outer loop
      vertex 51.7364817766693 19.8480775301221 0.0
      vertex 50.0 20.0 20.0
      vertex 51.7364817766693 19.8480775301221 20.0
   endloop
endfacet
facet normal 0.258819045102521 0.965925826289068 0.0
   outer loop
      vertex 51.7364817766693 19.8480775301221 20.0
      vertex 53.4202014332567 19.3969262078591 0.0
      vertex 51.7364817766693 19.8480775301221 0.0
   endloop
endfacet
facet normal 0.258819045102521 0.965925826289068 0.0
   outer loop
      vertex 53.4202014332567 19.3969262078591 0.0
      vertex 51.7364817766693 19.8480775301221 20.0
      vertex 53.4202014332567 19.3969262078591 20.0
   endloop
endfacet
facet normal 0.422618261740697 0.906307787036651 0.0
   outer loop
      vertex 53.4202014332567 19.3969262078591 20.0
      vertex 55.0 18.6602540378444 0.0
      vertex 53.4202014332567 19.3969262078591 0.0
   endloop
endfacet
facet normal 0.422618261740697 0.906307787036651 0.0
   outer loop
      vertex 55.0 18.6602540378444 0.0
      vertex 53.4202014332567 19.3969262078591 20.0
      vertex 55.0 18.6602540378444 20.0
   endloop
endfacet
facet normal 0.573576436351057 0.819152044288984 0.0
   outer loop
      vertex 55.0 18.6602540378444 20.0
      vertex 56.4278760968654 17.6604444311898 0.0
      vertex 55.0 18.6602540378444 0.0
   endloop
endfacet
facet normal 0.573576436351057 0.819152044288984 0.0
   outer loop
      vertex 56.4278760968654 17.6604444311898 0.0
      vertex 55.0 18.6602540378444 20.0
      vertex 56.4278760968654 17.6604444311898 20.0
   endloop
endfacet
facet normal 0.707106781186531 0.707106781186564 0.0
   outer loop
      vertex 56.4278760968654 17.6604444311898 20.0
      vertex 57.6604444311898 16.4278760968654 0.0
      vertex 56.4278760968654 17.6604444311898 0.0
   endloop
endfacet
facet normal 0.707106781186531 0.707106781186564 0.0
   outer loop
      vertex 57.6604444311898 16.4278760968654 0.0
      vertex 56.4278760968654 17.6604444311898 20.0
      vertex 57.6604444311898 16.4278760968654 20.0
   endloop
endfacet
facet normal 0.819152044289015 0.573576436351013 0.0
   outer loop
      vertex 57.6604444311898 16.4278760968654 0.0
      vertex 58.6602540378444 15.0 20.0
      vertex 58.6602540378444 15.0 0.0
   endloop
endfacet
facet normal 0.819152044289015 0.573576436351013 0.0
   outer loop
      vertex 58.6602540378444 15.0 20.0
      vertex 57.6604444311898 16.4278760968654 0.0
      vertex 57.6604444311898 16.4278760968654 20.0
   endloop
endfacet
facet normal 0.906307787036651 0.422618261740698 0.0
   outer loop
      vertex 58.6602540378444 15.0 0.0
      vertex 59.3969262078591 13.4202014332567 20.0
      vertex 59.3969262078591 13.4202014332567 0.0
   endloop
endfacet
facet normal 0.906307787036651 0.422618261740698 0.0
   outer loop
      vertex 59.3969262078591 13.4202014332567 20.0
      vertex 58.6602540378444 15.0 0.0
      vertex 58.6602540378444 15.0 20.0
   endloop
endfacet
facet normal 0.965925826289063 0.258819045102539 0.0
   outer loop
      vertex 59.3969262078591 13.4202014332567 0.0
      vertex 59.8480775301221 11.7364817766693 20.0
      vertex 59.8480775301221 11.7364817766693 0.0
   endloop
endfacet
facet normal 0.965925826289063 0.258819045102539 0.0
   outer loop
      vertex 59.8480775301221 11.7364817766693 20.0
      vertex 59.3969262078591 13.4202014332567 0.0
      vertex 59.3969262078591 13.4202014332567 20.0
   endloop
endfacet
facet normal -1.44736748045348e-048 3.45808195460811e-033 1.0
   outer loop
      vertex 42.1290615871582 8.61214119432135 2.0
      vertex 42.1290615871582 11.3878588056787 2.0
      vertex 42.0076396750867 10.0 2.0
   endloop
endfacet
facet normal -1.44736748045348e-048 3.45808195460811e-033 1.0
   outer loop
      vertex 42.1290615871582 11.3878588056787 2.0
      vertex 42.1290615871582 8.61214119432135 2.0
      vertex 42.4896379800169 7.26645177616273 2.0
   endloop
endfacet
facet normal -1.44736748045348e-048 3.45808195460811e-033 1.0
   outer loop
      vertex 42.1290615871582 11.3878588056787 2.0
      vertex 42.4896379800169 7.26645177616273 2.0
      vertex 42.4896379800169 12.7335482238373 2.0
   endloop
endfacet
facet normal -1.44736748045348e-048 3.45808195460811e-033 1.0
   outer loop
      vertex 42.4896379800169 12.7335482238373 2.0
      vertex 42.4896379800169 7.26645177616273 2.0
      vertex 43.0784129224263 6.00381983754333 2.0
   endloop
endfacet
facet normal -1.44736748045348e-048 3.45808195460811e-033 1.0
   outer loop
      vertex 42.4896379800169 12.7335482238373 2.0
      vertex 43.0784129224263 6.00381983754333 2.0
      vertex 43.0784129224263 13.9961801624567 2.0
   endloop
endfacet
facet normal -1.44736748045348e-048 3.45808195460811e-033 1.0
   outer loop
      vertex 43.0784129224263 13.9961801624567 2.0
      vertex 43.0784129224263 6.00381983754333 2.0
      vertex 43.8774967856955 4.86260981099551 2.0
   endloop
endfacet
facet normal -1.44736748045348e-048 3.45808195460811e-033 1.0
   outer loop
      vertex 43.0784129224263 13.9961801624567 2.0
      vertex 43.8774967856955 4.86260981099551 2.0
      vertex 43.8774967856955 15.1373901890045 2.0
   endloop
endfacet
facet normal -1.44736748045348e-048 3.45808195460811e-033 1.0
   outer loop
      vertex 43.8774967856955 15.1373901890045 2.0
      vertex 43.8774967856955 4.86260981099551 2.0
      vertex 44.8626098109955 3.87749678569553 2.0
   endloop
endfacet
facet normal -1.44736748045348e-048 3.45808195460811e-033 1.0
   outer loop
      vertex 43.8774967856955 15.1373901890045 2.0
      vertex 44.8626098109955 3.87749678569553 2.0
      vertex 44.8626098109955 16.1225032143045 2.0
   endloop
endfacet
facet normal -1.44736748045348e-048 3.45808195460811e-033 1.0
   outer loop
      vertex 44.8626098109955 16.1225032143045 2.0
      vertex 44.8626098109955 3.87749678569553 2.0
      vertex 46.0038198375434 16.9215870775738 2.0
   endloop
endfacet
facet normal -1.44736748045348e-048 3.45808195460811e-033 1.0
   outer loop
      vertex 46.0038198375434 16.9215870775738 2.0
      vertex 44.8626098109955 3.87749678569553 2.0
      vertex 46.0038198375434 3.07841292242623 2.0
   endloop
endfacet
facet normal -1.44736748045348e-048 3.45808195460811e-033 1.0
   outer loop
      vertex 46.0038198375434 16.9215870775738 2.0
      vertex 46.0038198375434 3.07841292242623 2.0
      vertex 47.2664517761628 2.48963798001691 2.0
   endloop
endfacet
facet normal -1.44736748045348e-048 3.45808195460811e-033 1.0
   outer loop
      vertex 46.0038198375434 16.9215870775738 2.0
      vertex 47.2664517761628 2.48963798001691 2.0
      vertex 47.2664517761627 17.5103620199831 2.0
   endloop
endfacet
facet normal -1.44736748045348e-048 3.45808195460811e-033 1.0
   outer loop
      vertex 47.2664517761627 17.5103620199831 2.0
      vertex 47.2664517761628 2.48963798001691 2.0
      vertex 48.6121411943213 17.8709384128418 2.0
   endloop
endfacet
facet normal -1.44736748045348e-048 3.45808195460811e-033 1.0
   outer loop
      vertex 48.6121411943213 17.8709384128418 2.0
      vertex 47.2664517761628 2.48963798001691 2.0
      vertex 48.6121411943213 2.12906158715821 2.0
   endloop
endfacet
facet normal -1.44736748045348e-048 3.45808195460811e-033 1.0
   outer loop
      vertex 48.6121411943213 17.8709384128418 2.0
      vertex 48.6121411943213 2.12906158715821 2.0
      vertex 50.0 2.0076396750867 2.0
   endloop
endfacet
facet normal -1.44736748045348e-048 3.45808195460811e-033 1.0
   outer loop
      vertex 48.6121411943213 17.8709384128418 2.0
      vertex 50.0 2.0076396750867 2.0
      vertex 50.0 17.9923603249133 2.0
   endloop
endfacet
facet normal -1.44736748045348e-048 3.45808195460811e-033 1.0
   outer loop
      vertex 50.0 17.9923603249133 2.0
      vertex 50.0 2.0076396750867 2.0
      vertex 51.3878588056787 2.12906158715821 2.0
   endloop
endfacet
facet normal -1.44736748045348e-048 3.45808195460811e-033 1.0
   outer loop
      vertex 50.0 17.9923603249133 2.0
      vertex 51.3878588056787 2.12906158715821 2.0
      vertex 51.3878588056787 17.8709384128418 2.0
   endloop
endfacet
facet normal -1.44736748045348e-048 3.45808195460811e-033 1.0
   outer loop
      vertex 51.3878588056787 17.8709384128418 2.0
      vertex 51.3878588056787 2.12906158715821 2.0
      vertex 52.7335482238373 2.48963798001691 2.0
   endloop
endfacet
facet normal -1.44736748045348e-048 3.45808195460811e-033 1.0
   outer loop
      vertex 51.3878588056787 17.8709384128418 2.0
      vertex 52.7335482238373 2.48963798001691 2.0
      vertex 52.7335482238373 17.5103620199831 2.0
   endloop
endfacet
facet normal -1.44736748045348e-048 3.45808195460811e-033 1.0
   outer loop
      vertex 52.7335482238373 17.5103620199831 2.0
      vertex 52.7335482238373 2.48963798001691 2.0
      vertex 53.9961801624567 16.9215870775738 2.0
   endloop
endfacet
facet normal -1.44736748045348e-048 3.45808195460811e-033 1.0
   outer loop
      vertex 53.9961801624567 16.9215870775738 2.0
      vertex 52.7335482238373 2.48963798001691 2.0
      vertex 53.9961801624567 3.07841292242623 2.0
   endloop
endfacet
facet normal -1.44736748045348e-048 3.45808195460811e-033 1.0
   outer loop
      vertex 53.9961801624567 16.9215870775738 2.0
      vertex 53.9961801624567 3.07841292242623 2.0
      vertex 55.1373901890046 3.87749678569558 2.0
   endloop
endfacet
facet normal -1.44736748045348e-048 3.45808195460811e-033 1.0
   outer loop
      vertex 53.9961801624567 16.9215870775738 2.0
      vertex 55.1373901890046 3.87749678569558 2.0
      vertex 55.1373901890045 16.1225032143045 2.0
   endloop
endfacet
facet normal -1.44736748045348e-048 3.45808195460811e-033 1.0
   outer loop
      vertex 55.1373901890045 16.1225032143045 2.0
      vertex 55.1373901890046 3.87749678569558 2.0
      vertex 56.1225032143045 15.1373901890045 2.0
   endloop
endfacet
facet normal -1.44736748045348e-048 3.45808195460811e-033 1.0
   outer loop
      vertex 56.1225032143045 15.1373901890045 2.0
      vertex 55.1373901890046 3.87749678569558 2.0
      vertex 56.1225032143045 4.86260981099545 2.0
   endloop
endfacet
facet normal -1.44736748045348e-048 3.45808195460811e-033 1.0
   outer loop
      vertex 56.1225032143045 15.1373901890045 2.0
      vertex 56.1225032143045 4.86260981099545 2.0
      vertex 56.9215870775737 6.00381983754327 2.0
   endloop
endfacet
facet normal -1.44736748045348e-048 3.45808195460811e-033 1.0
   outer loop
      vertex 56.1225032143045 15.1373901890045 2.0
      vertex 56.9215870775737 6.00381983754327 2.0
      vertex 56.9215870775738 13.9961801624567 2.0
   endloop
endfacet
facet normal -1.44736748045348e-048 3.45808195460811e-033 1.0
   outer loop
      vertex 56.9215870775738 13.9961801624567 2.0
      vertex 56.9215870775737 6.00381983754327 2.0
      vertex 57.510362019983 7.26645177616276 2.0
   endloop
endfacet
facet normal -1.44736748045348e-048 3.45808195460811e-033 1.0
   outer loop
      vertex 56.9215870775738 13.9961801624567 2.0
      vertex 57.510362019983 7.26645177616276 2.0
      vertex 57.510362019983 12.7335482238373 2.0
   endloop
endfacet
facet normal -1.44736748045348e-048 3.45808195460811e-033 1.0
   outer loop
      vertex 57.510362019983 12.7335482238373 2.0
      vertex 57.510362019983 7.26645177616276 2.0
      vertex 57.8709384128418 8.61214119432139 2.0
   endloop
endfacet
facet normal -1.44736748045348e-048 3.45808195460811e-033 1.0
   outer loop
      vertex 57.510362019983 12.7335482238373 2.0
      vertex 57.8709384128418 8.61214119432139 2.0
      vertex 57.8709384128418 11.3878588056787 2.0
   endloop
endfacet
facet normal -1.44736748045348e-048 3.45808195460811e-033 1.0
   outer loop
      vertex 57.8709384128418 11.3878588056787 2.0
      vertex 57.8709384128418 8.61214119432139 2.0
      vertex 57.9923603249133 10.0 2.0
   endloop
endfacet
facet normal -0.906307787036671 -0.422618261740655 0.0
   outer loop
      vertex 56.9215870775738 13.9961801624567 20.0
      vertex 57.510362019983 12.7335482238373 2.0
      vertex 57.510362019983 12.7335482238373 20.0
   endloop
endfacet
facet normal -0.906307787036671 -0.422618261740655 0.0
   outer loop
      vertex 57.510362019983 12.7335482238373 2.0
      vertex 56.9215870775738 13.9961801624567 20.0
      vertex 56.9215870775738 13.9961801624567 2.0
   endloop
endfacet
facet normal -0.819152044288987 -0.573576436351053 0.0
   outer loop
      vertex 56.1225032143045 15.1373901890045 20.0
      vertex 56.9215870775738 13.9961801624567 2.0
      vertex 56.9215870775738 13.9961801624567 20.0
   endloop
endfacet
facet normal -0.819152044288987 -0.573576436351053 0.0
   outer loop
      vertex 56.9215870775738 13.9961801624567 2.0
      vertex 56.1225032143045 15.1373901890045 20.0
      vertex 56.1225032143045 15.1373901890045 2.0
   endloop
endfacet
facet normal -0.707106781186539 -0.707106781186556 0.0
   outer loop
      vertex 56.1225032143045 15.1373901890045 20.0
      vertex 55.1373901890045 16.1225032143045 2.0
      vertex 56.1225032143045 15.1373901890045 2.0
   endloop
endfacet
facet normal -0.707106781186539 -0.707106781186556 0.0
   outer loop
      vertex 55.1373901890045 16.1225032143045 2.0
      vertex 56.1225032143045 15.1373901890045 20.0
      vertex 55.1373901890045 16.1225032143045 20.0
   endloop
endfacet
facet normal -0.573576436351056 -0.819152044288985 0.0
   outer loop
      vertex 55.1373901890045 16.1225032143045 20.0
      vertex 53.9961801624567 16.9215870775738 2.0
      vertex 55.1373901890045 16.1225032143045 2.0
   endloop
endfacet
facet normal -0.573576436351056 -0.819152044288985 0.0
   outer loop
      vertex 53.9961801624567 16.9215870775738 2.0
      vertex 55.1373901890045 16.1225032143045 20.0
      vertex 53.9961801624567 16.9215870775738 20.0
   endloop
endfacet
facet normal -0.422618261740696 -0.906307787036652 0.0
   outer loop
      vertex 53.9961801624567 16.9215870775738 20.0
      vertex 52.7335482238373 17.5103620199831 2.0
      vertex 53.9961801624567 16.9215870775738 2.0
   endloop
endfacet
facet normal -0.422618261740696 -0.906307787036652 0.0
   outer loop
      vertex 52.7335482238373 17.5103620199831 2.0
      vertex 53.9961801624567 16.9215870775738 20.0
      vertex 52.7335482238373 17.5103620199831 20.0
   endloop
endfacet
facet normal -0.258819045102521 -0.965925826289068 0.0
   outer loop
      vertex 52.7335482238373 17.5103620199831 20.0
      vertex 51.3878588056787 17.8709384128418 2.0
      vertex 52.7335482238373 17.5103620199831 2.0
   endloop
endfacet
facet normal -0.258819045102521 -0.965925826289068 0.0
   outer loop
      vertex 51.3878588056787 17.8709384128418 2.0
      vertex 52.7335482238373 17.5103620199831 20.0
      vertex 51.3878588056787 17.8709384128418 20.0
   endloop
endfacet
facet normal -0.0871557427476588 -0.996194698091746 0.0
   outer loop
      vertex 51.3878588056787 17.8709384128418 20.0
      vertex 50.0 17.9923603249133 2.0
      vertex 51.3878588056787 17.8709384128418 2.0
   endloop
endfacet
facet normal -0.0871557427476588 -0.996194698091746 0.0
   outer loop
      vertex 50.0 17.9923603249133 2.0
      vertex 51.3878588056787 17.8709384128418 20.0
      vertex 50.0 17.9923603249133 20.0
   endloop
endfacet
facet normal 0.0871557427476588 -0.996194698091746 0.0
   outer loop
      vertex 50.0 17.9923603249133 20.0
      vertex 48.6121411943213 17.8709384128418 2.0
      vertex 50.0 17.9923603249133 2.0
   endloop
endfacet
facet normal 0.0871557427476588 -0.996194698091746 0.0
   outer loop
      vertex 48.6121411943213 17.8709384128418 2.0
      vertex 50.0 17.9923603249133 20.0
      vertex 48.6121411943213 17.8709384128418 20.0
   endloop
endfacet
facet normal 0.258819045102521 -0.965925826289068 0.0
   outer loop
      vertex 48.6121411943213 17.8709384128418 20.0
      vertex 47.2664517761627 17.5103620199831 2.0
      vertex 48.6121411943213 17.8709384128418 2.0
   endloop
endfacet
facet normal 0.258819045102521 -0.965925826289068 0.0
   outer loop
      vertex 47.2664517761627 17.5103620199831 2.0
      vertex 48.6121411943213 17.8709384128418 20.0
      vertex 47.2664517761627 17.5103620199831 20.0
   endloop
endfacet
facet normal 0.422618261740704 -0.906307787036648 0.0
   outer loop
      vertex 47.2664517761627 17.5103620199831 20.0
      vertex 46.0038198375434 16.9215870775738 2.0
      vertex 47.2664517761627 17.5103620199831 2.0
   endloop
endfacet
facet normal 0.422618261740704 -0.906307787036648 0.0
   outer loop
      vertex 46.0038198375434 16.9215870775738 2.0
      vertex 47.2664517761627 17.5103620199831 20.0
      vertex 46.0038198375434 16.9215870775738 20.0
   endloop
endfacet
facet normal 0.573576436351042 -0.819152044288995 0.0
   outer loop
      vertex 46.0038198375434 16.9215870775738 20.0
      vertex 44.8626098109955 16.1225032143045 2.0
      vertex 46.0038198375434 16.9215870775738 2.0
   endloop
endfacet
facet normal 0.573576436351042 -0.819152044288995 0.0
   outer loop
      vertex 44.8626098109955 16.1225032143045 2.0
      vertex 46.0038198375434 16.9215870775738 20.0
      vertex 44.8626098109955 16.1225032143045 20.0
   endloop
endfacet
facet normal 0.707106781186543 -0.707106781186552 0.0
   outer loop
      vertex 44.8626098109955 16.1225032143045 20.0
      vertex 43.8774967856955 15.1373901890045 2.0
      vertex 44.8626098109955 16.1225032143045 2.0
   endloop
endfacet
facet normal 0.707106781186543 -0.707106781186552 0.0
   outer loop
      vertex 43.8774967856955 15.1373901890045 2.0
      vertex 44.8626098109955 16.1225032143045 20.0
      vertex 43.8774967856955 15.1373901890045 20.0
   endloop
endfacet
facet normal 0.819152044288999 -0.573576436351035 0.0
   outer loop
      vertex 43.8774967856955 15.1373901890045 2.0
      vertex 43.0784129224263 13.9961801624567 20.0
      vertex 43.0784129224263 13.9961801624567 2.0
   endloop
endfacet
facet normal 0.819152044288999 -0.573576436351035 0.0
   outer loop
      vertex 43.0784129224263 13.9961801624567 20.0
      vertex 43.8774967856955 15.1373901890045 2.0
      vertex 43.8774967856955 15.1373901890045 20.0
   endloop
endfacet
facet normal 0.906307787036642 -0.422618261740716 0.0
   outer loop
      vertex 43.0784129224263 13.9961801624567 2.0
      vertex 42.4896379800169 12.7335482238373 20.0
      vertex 42.4896379800169 12.7335482238373 2.0
   endloop
endfacet
facet normal 0.906307787036642 -0.422618261740716 0.0
   outer loop
      vertex 42.4896379800169 12.7335482238373 20.0
      vertex 43.0784129224263 13.9961801624567 2.0
      vertex 43.0784129224263 13.9961801624567 20.0
   endloop
endfacet
facet normal 0.965925826289071 -0.258819045102511 0.0
   outer loop
      vertex 42.4896379800169 12.7335482238373 2.0
      vertex 42.1290615871582 11.3878588056787 20.0
      vertex 42.1290615871582 11.3878588056787 2.0
   endloop
endfacet
facet normal 0.965925826289071 -0.258819045102511 0.0
   outer loop
      vertex 42.1290615871582 11.3878588056787 20.0
      vertex 42.4896379800169 12.7335482238373 2.0
      vertex 42.4896379800169 12.7335482238373 20.0
   endloop
endfacet
facet normal 0.996194698091745 -0.0871557427476602 0.0
   outer loop
      vertex 42.1290615871582 11.3878588056787 2.0
      vertex 42.0076396750867 10.0 20.0
      vertex 42.0076396750867 10.0 2.0
   endloop
endfacet
facet normal 0.996194698091745 -0.0871557427476602 0.0
   outer loop
      vertex 42.0076396750867 10.0 20.0
      vertex 42.1290615871582 11.3878588056787 2.0
      vertex 42.1290615871582 11.3878588056787 20.0
   endloop
endfacet
facet normal 0.996194698091745 0.0871557427476602 0.0
   outer loop
      vertex 42.0076396750867 10.0 2.0
      vertex 42.1290615871582 8.61214119432135 20.0
      vertex 42.1290615871582 8.61214119432135 2.0
   endloop
endfacet
facet normal 0.996194698091745 0.0871557427476602 0.0
   outer loop
      vertex 42.1290615871582 8.61214119432135 20.0
      vertex 42.0076396750867 10.0 2.0
      vertex 42.0076396750867 10.0 20.0
   endloop
endfacet
facet normal 0.965925826289071 0.258819045102512 0.0
   outer loop
      vertex 42.1290615871582 8.61214119432135 2.0
      vertex 42.4896379800169 7.26645177616273 20.0
      vertex 42.4896379800169 7.26645177616273 2.0
   endloop
endfacet
facet normal 0.965925826289071 0.258819045102512 0.0
   outer loop
      vertex 42.4896379800169 7.26645177616273 20.0
      vertex 42.1290615871582 8.61214119432135 2.0
      vertex 42.1290615871582 8.61214119432135 20.0
   endloop
endfacet
facet normal 0.906307787036645 0.422618261740711 0.0
   outer loop
      vertex 42.4896379800169 7.26645177616273 2.0
      vertex 43.0784129224263 6.00381983754333 20.0
      vertex 43.0784129224263 6.00381983754333 2.0
   endloop
endfacet
facet normal 0.906307787036645 0.422618261740711 0.0
   outer loop
      vertex 43.0784129224263 6.00381983754333 20.0
      vertex 42.4896379800169 7.26645177616273 2.0
      vertex 42.4896379800169 7.26645177616273 20.0
   endloop
endfacet
facet normal 0.819152044288994 0.573576436351043 0.0
   outer loop
      vertex 43.0784129224263 6.00381983754333 2.0
      vertex 43.8774967856955 4.86260981099551 20.0
      vertex 43.8774967856955 4.86260981099551 2.0
   endloop
endfacet
facet normal 0.819152044288994 0.573576436351043 0.0
   outer loop
      vertex 43.8774967856955 4.86260981099551 20.0
      vertex 43.0784129224263 6.00381983754333 2.0
      vertex 43.0784129224263 6.00381983754333 20.0
   endloop
endfacet
facet normal 0.707106781186546 0.707106781186549 0.0
   outer loop
      vertex 43.8774967856955 4.86260981099551 20.0
      vertex 44.8626098109955 3.87749678569553 2.0
      vertex 43.8774967856955 4.86260981099551 2.0
   endloop
endfacet
facet normal 0.707106781186546 0.707106781186549 0.0
   outer loop
      vertex 44.8626098109955 3.87749678569553 2.0
      vertex 43.8774967856955 4.86260981099551 20.0
      vertex 44.8626098109955 3.87749678569553 20.0
   endloop
endfacet
facet normal 0.573576436351048 0.81915204428899 0.0
   outer loop
      vertex 44.8626098109955 3.87749678569553 20.0
      vertex 46.0038198375434 3.07841292242623 2.0
      vertex 44.8626098109955 3.87749678569553 2.0
   endloop
endfacet
facet normal 0.573576436351048 0.81915204428899 0.0
   outer loop
      vertex 46.0038198375434 3.07841292242623 2.0
      vertex 44.8626098109955 3.87749678569553 20.0
      vertex 46.0038198375434 3.07841292242623 20.0
   endloop
endfacet
facet normal 0.4226182617407 0.906307787036649 0.0
   outer loop
      vertex 46.0038198375434 3.07841292242623 20.0
      vertex 47.2664517761628 2.48963798001691 2.0
      vertex 46.0038198375434 3.07841292242623 2.0
   endloop
endfacet
facet normal 0.4226182617407 0.906307787036649 0.0
   outer loop
      vertex 47.2664517761628 2.48963798001691 2.0
      vertex 46.0038198375434 3.07841292242623 20.0
      vertex 47.2664517761628 2.48963798001691 20.0
   endloop
endfacet
facet normal 0.258819045102522 0.965925826289068 0.0
   outer loop
      vertex 47.2664517761628 2.48963798001691 20.0
      vertex 48.6121411943213 2.12906158715821 2.0
      vertex 47.2664517761628 2.48963798001691 2.0
   endloop
endfacet
facet normal 0.258819045102522 0.965925826289068 0.0
   outer loop
      vertex 48.6121411943213 2.12906158715821 2.0
      vertex 47.2664517761628 2.48963798001691 20.0
      vertex 48.6121411943213 2.12906158715821 20.0
   endloop
endfacet
facet normal 0.0871557427476578 0.996194698091746 0.0
   outer loop
      vertex 48.6121411943213 2.12906158715821 20.0
      vertex 50.0 2.0076396750867 2.0
      vertex 48.6121411943213 2.12906158715821 2.0
   endloop
endfacet
facet normal 0.0871557427476578 0.996194698091746 0.0
   outer loop
      vertex 50.0 2.0076396750867 2.0
      vertex 48.6121411943213 2.12906158715821 20.0
      vertex 50.0 2.0076396750867 20.0
   endloop
endfacet
facet normal -0.0871557427476572 0.996194698091746 0.0
   outer loop
      vertex 50.0 2.0076396750867 20.0
      vertex 51.3878588056787 2.12906158715821 2.0
      vertex 50.0 2.0076396750867 2.0
   endloop
endfacet
facet normal -0.0871557427476572 0.996194698091746 0.0
   outer loop
      vertex 51.3878588056787 2.12906158715821 2.0
      vertex 50.0 2.0076396750867 20.0
      vertex 51.3878588056787 2.12906158715821 20.0
   endloop
endfacet
facet normal -0.258819045102518 0.965925826289069 0.0
   outer loop
      vertex 51.3878588056787 2.12906158715821 20.0
      vertex 52.7335482238373 2.48963798001691 2.0
      vertex 51.3878588056787 2.12906158715821 2.0
   endloop
endfacet
facet normal -0.258819045102518 0.965925826289069 0.0
   outer loop
      vertex 52.7335482238373 2.48963798001691 2.0
      vertex 51.3878588056787 2.12906158715821 20.0
      vertex 52.7335482238373 2.48963798001691 20.0
   endloop
endfacet
facet normal -0.422618261740703 0.906307787036648 0.0
   outer loop
      vertex 52.7335482238373 2.48963798001691 20.0
      vertex 53.9961801624567 3.07841292242623 2.0
      vertex 52.7335482238373 2.48963798001691 2.0
   endloop
endfacet
facet normal -0.422618261740703 0.906307787036648 0.0
   outer loop
      vertex 53.9961801624567 3.07841292242623 2.0
      vertex 52.7335482238373 2.48963798001691 20.0
      vertex 53.9961801624567 3.07841292242623 20.0
   endloop
endfacet
facet normal -0.57357643635105 0.819152044288989 0.0
   outer loop
      vertex 53.9961801624567 3.07841292242623 20.0
      vertex 55.1373901890046 3.87749678569558 2.0
      vertex 53.9961801624567 3.07841292242623 2.0
   endloop
endfacet
facet normal -0.57357643635105 0.819152044288989 0.0
   outer loop
      vertex 55.1373901890046 3.87749678569558 2.0
      vertex 53.9961801624567 3.07841292242623 20.0
      vertex 55.1373901890046 3.87749678569558 20.0
   endloop
endfacet
facet normal -0.707106781186546 0.707106781186549 0.0
   outer loop
      vertex 55.1373901890046 3.87749678569558 20.0
      vertex 56.1225032143045 4.86260981099545 2.0
      vertex 55.1373901890046 3.87749678569558 2.0
   endloop
endfacet
facet normal -0.707106781186546 0.707106781186549 0.0
   outer loop
      vertex 56.1225032143045 4.86260981099545 2.0
      vertex 55.1373901890046 3.87749678569558 20.0
      vertex 56.1225032143045 4.86260981099545 20.0
   endloop
endfacet
facet normal -0.819152044288996 0.57357643635104 0.0
   outer loop
      vertex 56.9215870775737 6.00381983754327 20.0
      vertex 56.1225032143045 4.86260981099545 2.0
      vertex 56.1225032143045 4.86260981099545 20.0
   endloop
endfacet
facet normal -0.819152044288996 0.57357643635104 0.0
   outer loop
      vertex 56.1225032143045 4.86260981099545 2.0
      vertex 56.9215870775737 6.00381983754327 20.0
      vertex 56.9215870775737 6.00381983754327 2.0
   endloop
endfacet
facet normal -0.906307787036662 0.422618261740674 0.0
   outer loop
      vertex 57.510362019983 7.26645177616276 20.0
      vertex 56.9215870775737 6.00381983754327 2.0
      vertex 56.9215870775737 6.00381983754327 20.0
   endloop
endfacet
facet normal -0.906307787036662 0.422618261740674 0.0
   outer loop
      vertex 56.9215870775737 6.00381983754327 2.0
      vertex 57.510362019983 7.26645177616276 20.0
      vertex 57.510362019983 7.26645177616276 2.0
   endloop
endfacet
facet normal -0.965925826289067 0.258819045102525 0.0
   outer loop
      vertex 57.8709384128418 8.61214119432139 20.0
      vertex 57.510362019983 7.26645177616276 2.0
      vertex 57.510362019983 7.26645177616276 20.0
   endloop
endfacet
facet normal -0.965925826289067 0.258819045102525 0.0
   outer loop
      vertex 57.510362019983 7.26645177616276 2.0
      vertex 57.8709384128418 8.61214119432139 20.0
      vertex 57.8709384128418 8.61214119432139 2.0
   endloop
endfacet
facet normal -0.996194698091742 0.0871557427476952 0.0
   outer loop
      vertex 57.9923603249133 10.0 20.0
      vertex 57.8709384128418 8.61214119432139 2.0
      vertex 57.8709384128418 8.61214119432139 20.0
   endloop
endfacet
facet normal -0.996194698091742 0.0871557427476952 0.0
   outer loop
      vertex 57.8709384128418 8.61214119432139 2.0
      vertex 57.9923603249133 10.0 20.0
      vertex 57.9923603249133 10.0 2.0
   endloop
endfacet
facet normal -0.996194698091743 -0.087155742747692 0.0
   outer loop
      vertex 57.8709384128418 11.3878588056787 20.0
      vertex 57.9923603249133 10.0 2.0
      vertex 57.9923603249133 10.0 20.0
   endloop
endfacet
facet normal -0.996194698091743 -0.087155742747692 0.0
   outer loop
      vertex 57.9923603249133 10.0 2.0
      vertex 57.8709384128418 11.3878588056787 20.0
      vertex 57.8709384128418 11.3878588056787 2.0
   endloop
endfacet
facet normal -0.965925826289067 -0.258819045102524 0.0
   outer loop
      vertex 57.510362019983 12.7335482238373 20.0
      vertex 57.8709384128418 11.3878588056787 2.0
      vertex 57.8709384128418 11.3878588056787 20.0
   endloop
endfacet
facet normal -0.965925826289067 -0.258819045102524 0.0
   outer loop
      vertex 57.8709384128418 11.3878588056787 2.0
      vertex 57.510362019983 12.7335482238373 20.0
      vertex 57.510362019983 12.7335482238373 2.0
   endloop
endfacet
endsolid TestPrints
